<svg xmlns="http://www.w3.org/2000/svg" xmlns:xlink="http://www.w3.org/1999/xlink" width="14" height="14" class="w-[14px] h-[14px]"><defs><symbol xmlns="http://www.w3.org/2000/svg" id="a" fill="none" viewBox="0 0 14 14"><path stroke="#6C7178" stroke-linecap="round" stroke-linejoin="round" d="M4.888 5.164c.406.846.96 1.638 1.66 2.34.702.7 1.494 1.254 2.34 1.66a.99.99 0 0 0 .155.066.61.61 0 0 0 .503-.086c.039-.028.072-.061.139-.128.204-.204.306-.306.408-.373a1.167 1.167 0 0 1 1.272 0c.103.067.205.169.409.373l.113.114c.31.31.465.465.55.631.167.331.167.722 0 1.053-.085.167-.24.322-.55.632l-.092.092c-.309.309-.463.463-.673.581a1.969 1.969 0 0 1-.862.224c-.241 0-.406-.047-.735-.14A11.105 11.105 0 0 1 4.693 9.36 11.106 11.106 0 0 1 1.85 4.527c-.094-.329-.14-.494-.141-.734 0-.268.093-.63.224-.863.118-.21.273-.364.582-.673l.092-.092c.31-.31.465-.465.631-.55a1.167 1.167 0 0 1 1.053 0c.167.085.322.24.632.55l.113.114c.204.204.306.305.373.408.251.387.251.885 0 1.272-.067.102-.169.204-.373.408-.066.067-.1.1-.128.14a.61.61 0 0 0-.085.502.99.99 0 0 0 .065.155Z"/></symbol></defs><use xlink:href="#a" width="100%" height="100%" stroke="#6C7178"/></svg>